<svg width="87" height="72" viewBox="0 0 87 72" fill="none" xmlns="http://www.w3.org/2000/svg">
<path d="M85.3008 24.1784V13.5317C85.3008 9.63743 82.1328 6.48065 78.2247 6.48065H27.9207L25.8587 3.53309C25.0521 2.38 23.7308 1.69275 22.3203 1.69275H8.7751C4.86724 1.69275 1.69922 4.8497 1.69922 8.74384V24.1782" fill="#272044"/>
<path d="M7.64038 20.3294V16.4704C7.64038 14.9139 8.90647 13.6523 10.4684 13.6523H76.5316C78.0936 13.6523 79.3596 14.914 79.3596 16.4704V20.3294" fill="#272044"/>
<path d="M85.3008 52.2482V63.037C85.3008 67.0524 82.0342 70.3075 78.0047 70.3075H8.99532C4.9658 70.3075 1.69922 67.0524 1.69922 63.037V24.1784C1.69922 22.0527 3.42851 20.3295 5.56171 20.3295H81.4383C83.5715 20.3295 85.3008 22.0527 85.3008 24.1784V34.5327" fill="#272044"/>
<path d="M85.3007 44.7211C84.5998 44.7211 83.9599 44.2744 83.7118 43.6232C83.4586 42.9584 83.6642 42.1783 84.2151 41.7251C84.7419 41.2918 85.4985 41.2151 86.1012 41.5352C86.7424 41.8756 87.1024 42.6124 86.9736 43.3254C86.8299 44.1203 86.1123 44.7211 85.3007 44.7211Z" fill="white"/>
<path d="M78.2247 4.7879H28.8077L27.2529 2.565C26.1292 0.958935 24.2854 0 22.3204 0H8.77528C3.93641 0 0 3.92258 0 8.74383V63.0368C0 67.9791 4.0353 72 8.99532 72H78.0047C82.9647 72 87 67.9791 87 63.0368V52.2481C87 51.3134 86.2393 50.5554 85.3008 50.5554C84.3623 50.5554 83.6016 51.3134 83.6016 52.2481V63.0368C83.6016 66.1123 81.0908 68.6145 78.0047 68.6145H75.1547H69.4131C65.7954 68.6145 63.3591 68.6145 60.917 68.6145H54.5449C53.5157 68.6145 50.5518 68.6145 49.1924 68.6145C47.833 68.6145 46.3984 68.6145 45.3691 68.6145H43.585C42.5557 68.6145 47.4082 68.6145 41.7158 68.6145C37.3828 68.6145 43.4706 68.6145 33.4746 68.6145H30.7853C28.3433 68.6145 22.3201 68.6145 19.3711 68.6145H11.8451H8.99532C5.9092 68.6147 3.39844 66.1125 3.39844 63.037V24.1782C3.39844 22.9894 4.36886 22.0222 5.56171 22.0222H81.4383C82.6311 22.0222 83.6016 22.9894 83.6016 24.1782V34.5326C83.6016 35.4674 84.3623 36.2254 85.3008 36.2254C86.2393 36.2254 87 35.4674 87 34.5326V13.5317C87 8.71031 83.0634 4.7879 78.2247 4.7879ZM77.6604 18.6367H9.33959V16.4703C9.33959 15.8498 9.84595 15.3448 10.4685 15.3448H76.5316C77.154 15.3448 77.6604 15.8498 77.6604 16.4703V18.6367ZM81.4383 18.6367H81.0589V16.4703C81.0589 13.983 79.0279 11.9593 76.5316 11.9593H10.4684C7.97205 11.9593 5.94098 13.9828 5.94098 16.4703V18.6367H5.56154C4.79469 18.6367 4.06351 18.7921 3.39827 19.0731V8.74399C3.39827 5.78933 5.81031 3.38564 8.77511 3.38564H22.3201C23.1743 3.38564 23.976 3.80256 24.4645 4.50081L26.5263 7.44854C26.8441 7.90287 27.3647 8.17354 27.9205 8.17354H78.2247C81.1895 8.17354 83.6016 10.5772 83.6016 13.5317V19.0731C82.9363 18.7921 82.2051 18.6367 81.4383 18.6367Z" fill="white"/>
</svg>
