<svg width="88" height="77" viewBox="0 0 88 77" fill="none" xmlns="http://www.w3.org/2000/svg">
<path d="M5.75132 74.7324H82.2733C84.5791 74.7324 86.0229 72.2394 84.8754 70.2394L47.1533 4.49514C46.0085 2.49998 43.1367 2.48239 41.9676 4.46339L3.1677 70.2076C1.98746 72.2075 3.42916 74.7324 5.75132 74.7324Z" fill="#272044" stroke="white" stroke-width="4"/>
<path d="M42.292 23.5517H46.8337C47.2062 23.5517 47.5639 23.7024 47.8254 23.9706C48.0855 24.2401 48.2258 24.6015 48.2163 24.9769L47.3039 53.7189C47.2843 54.4735 46.669 55.0737 45.919 55.0737H43.2072C42.4562 55.0737 41.8407 54.4723 41.8229 53.7189L40.9101 24.9769C40.9004 24.6013 41.0415 24.2401 41.3017 23.9706C41.5618 23.7024 41.9194 23.5517 42.292 23.5517ZM48.1587 58.8889V64.092C48.1587 64.8587 47.5395 65.4799 46.7738 65.4799H42.3535C41.5878 65.4799 40.9692 64.8587 40.9692 64.092V58.8889C40.9692 58.122 41.5878 57.4996 42.3535 57.4996H46.7738C47.5395 57.4983 48.1587 58.122 48.1587 58.8889Z" fill="white"/>
</svg>
