<svg width="293" height="338" viewBox="0 0 293 338" fill="none" xmlns="http://www.w3.org/2000/svg">
<g clip-path="url(#clip0_1_732)">
<g filter="url(#filter0_d_1_732)">
<path d="M147 235.553C207.889 235.553 257.25 186.338 257.25 125.628C257.25 64.9185 207.889 15.7035 147 15.7035C86.1106 15.7035 36.75 64.9185 36.75 125.628C36.75 186.338 86.1106 235.553 147 235.553Z" fill="#0D1117"/>
</g>
<path d="M147 235.553C207.889 235.553 257.25 186.338 257.25 125.628C257.25 64.9185 207.889 15.7035 147 15.7035C86.1106 15.7035 36.75 64.9185 36.75 125.628C36.75 186.338 86.1106 235.553 147 235.553Z" stroke="white" stroke-width="5.25"/>
<path d="M147 235.553C207.889 235.553 257.25 186.338 257.25 125.628C257.25 64.9185 207.889 15.7035 147 15.7035C86.1106 15.7035 36.75 64.9185 36.75 125.628C36.75 186.338 86.1106 235.553 147 235.553Z" fill="white"/>
<g filter="url(#filter1_d_1_732)">
<path d="M44.625 125.695C44.625 170.892 73.9298 209.065 114.624 222.6C119.743 223.495 121.662 220.431 121.662 217.751C121.662 215.323 121.534 207.281 121.534 198.726C95.8125 203.447 89.1581 192.466 87.1106 186.723C85.9589 183.786 80.9681 174.721 76.6172 172.295C73.0341 170.379 67.9153 165.657 76.4892 165.529C84.5512 165.401 90.3098 172.933 92.2294 175.997C101.443 191.446 116.16 187.108 122.046 184.424C122.942 177.786 125.629 173.314 128.572 170.762C105.794 168.21 81.9919 159.401 81.9919 120.334C81.9919 109.224 85.9589 100.032 92.4853 92.8825C91.4616 90.3307 87.8784 79.8603 93.5091 65.8135C93.5091 65.8135 102.083 63.1341 121.662 76.2839C129.852 73.9872 138.554 72.8369 147.256 72.8369C155.958 72.8369 164.66 73.9872 172.85 76.2839C192.429 63.0065 201.003 65.8155 201.003 65.8155C206.633 79.8584 203.05 90.3267 202.027 92.8805C208.553 100.03 212.52 109.094 212.52 120.33C212.52 159.526 188.59 168.206 165.811 170.762C169.523 173.954 172.722 180.082 172.722 189.658C172.722 203.32 172.594 214.298 172.594 217.747C172.594 220.427 174.513 223.616 179.632 222.596C220.07 209.067 249.375 170.766 249.375 125.697C249.375 69.2605 203.562 23.5553 147 23.5553C90.4378 23.5553 44.625 69.2624 44.625 125.695Z" fill="#342B5B"/>
</g>
<path d="M44.625 125.695C44.625 170.892 73.9298 209.065 114.624 222.6C119.743 223.495 121.662 220.431 121.662 217.751C121.662 215.323 121.534 207.281 121.534 198.726C95.8125 203.447 89.1581 192.466 87.1106 186.723C85.9589 183.786 80.9681 174.721 76.6172 172.295C73.0341 170.379 67.9153 165.657 76.4892 165.529C84.5512 165.401 90.3098 172.933 92.2294 175.997C101.443 191.446 116.16 187.108 122.046 184.424C122.942 177.786 125.629 173.314 128.572 170.762C105.794 168.21 81.9919 159.401 81.9919 120.334C81.9919 109.224 85.9589 100.032 92.4853 92.8825C91.4616 90.3307 87.8784 79.8603 93.5091 65.8135C93.5091 65.8135 102.083 63.1341 121.662 76.2839C129.852 73.9872 138.554 72.8369 147.256 72.8369C155.958 72.8369 164.66 73.9872 172.85 76.2839C192.429 63.0065 201.003 65.8155 201.003 65.8155C206.633 79.8584 203.05 90.3267 202.027 92.8805C208.553 100.03 212.52 109.094 212.52 120.33C212.52 159.526 188.59 168.206 165.811 170.762C169.523 173.954 172.722 180.082 172.722 189.658C172.722 203.32 172.594 214.298 172.594 217.747C172.594 220.427 174.513 223.616 179.632 222.596C220.07 209.067 249.375 170.766 249.375 125.697C249.375 69.2605 203.562 23.5553 147 23.5553C90.4378 23.5553 44.625 69.2624 44.625 125.695Z" fill="#342B5B"/>
<g filter="url(#filter2_i_1_732)">
<path d="M44.625 125.695C44.625 170.892 73.9298 209.065 114.624 222.6C119.743 223.495 121.662 220.431 121.662 217.751C121.662 215.323 121.534 207.281 121.534 198.726C95.8125 203.447 89.1581 192.466 87.1106 186.723C85.9589 183.786 80.9681 174.721 76.6172 172.295C73.0341 170.379 67.9153 165.657 76.4892 165.529C84.5512 165.401 90.3098 172.933 92.2294 175.997C101.443 191.446 116.16 187.108 122.046 184.424C122.942 177.786 125.629 173.314 128.572 170.762C105.794 168.21 81.9919 159.401 81.9919 120.334C81.9919 109.224 85.9589 100.032 92.4853 92.8825C91.4616 90.3307 87.8784 79.8603 93.5091 65.8135C93.5091 65.8135 102.083 63.1341 121.662 76.2839C129.852 73.9872 138.554 72.8369 147.256 72.8369C155.958 72.8369 164.66 73.9872 172.85 76.2839C192.429 63.0065 201.003 65.8155 201.003 65.8155C206.633 79.8584 203.05 90.3267 202.027 92.8805C208.553 100.03 212.52 109.094 212.52 120.33C212.52 159.526 188.59 168.206 165.811 170.762C169.523 173.954 172.722 180.082 172.722 189.658C172.722 203.32 172.594 214.298 172.594 217.747C172.594 220.427 174.513 223.616 179.632 222.596C220.07 209.067 249.375 170.766 249.375 125.697C249.375 69.2605 203.562 23.5553 147 23.5553C90.4378 23.5553 44.625 69.2624 44.625 125.695Z" fill="#342B5B"/>
</g>
</g>
<g clip-path="url(#clip1_1_732)">
<path fill-rule="evenodd" clip-rule="evenodd" d="M12.6761 283.162H0L0.00178688 338H12.6761V283.162Z" fill="white"/>
<path fill-rule="evenodd" clip-rule="evenodd" d="M25.019 330.117C27.4923 332.648 30.4757 334.618 33.7686 335.893C37.4157 337.324 41.3021 338.037 45.2167 337.993C53.2291 338.167 60.9423 334.932 66.4593 329.084L59.7976 319.595C57.8837 321.523 55.6628 323.114 53.2267 324.304C50.92 325.475 48.3762 326.094 45.7927 326.116C43.5164 326.152 41.2602 325.682 39.1855 324.739C37.3502 323.918 35.7384 322.664 34.4864 321.083C33.3093 319.561 32.402 317.845 31.8042 316.013C31.1887 314.131 30.8788 312.162 30.8866 310.182C30.8749 308.276 31.1663 306.381 31.7497 304.568C32.3206 302.816 33.2056 301.183 34.361 299.752C35.6164 298.235 37.2242 297.054 39.042 296.312C41.1828 295.431 43.4801 294.999 45.7927 295.043C48.193 295.074 50.5626 295.591 52.7597 296.564C55.0362 297.508 57.1459 298.817 59.0071 300.439L64.9837 290.66C62.4292 288.16 59.364 286.251 56.0015 285.064C52.5448 283.803 48.8955 283.16 45.2185 283.163C41.3921 283.129 37.5954 283.842 34.0393 285.264C30.7552 286.558 27.7708 288.518 25.2715 291.022C22.8353 293.515 20.9139 296.469 19.6184 299.713C18.239 303.129 17.5419 306.784 17.5668 310.471C17.5328 314.204 18.1979 317.91 19.5275 321.396C20.7612 324.642 22.6283 327.608 25.019 330.117Z" fill="white"/>
<path fill-rule="evenodd" clip-rule="evenodd" d="M103.763 326.85H82.397L82.3949 316.248H98.3306V305.097H82.397L82.3949 294.313H101.952V283.162H69.3782L69.3566 338H103.763V326.85Z" fill="white"/>
<path fill-rule="evenodd" clip-rule="evenodd" d="M115.534 316.061V338H110.101V283.191H126.064C129.354 283.031 132.643 283.536 135.729 284.675C138.103 285.764 140.097 287.527 141.456 289.74C142.894 292.161 143.497 296.811 143.421 299.619C143.493 302.901 142.58 306.925 140.706 309.635C138.99 312.164 136.621 314.023 133.648 314.967C134.186 315.61 134.452 316.274 134.864 317.002L146.319 338H140.314L128.391 316.065L115.534 316.061ZM125.856 288.646H115.534V310.581H128.391C131.239 310.71 133.336 310.505 135.317 308.477C137.274 306.31 138.305 302.516 138.165 299.614C138.201 297.67 137.746 294.941 136.754 293.263C135.805 291.669 134.37 290.413 132.654 289.676C130.445 288.915 128.192 288.53 125.856 288.646Z" fill="white"/>
<path fill-rule="evenodd" clip-rule="evenodd" d="M161.335 334.317C157.357 331.912 154.094 328.435 151.896 324.263C149.608 319.938 148.437 315.081 148.494 310.158C148.439 305.369 149.612 300.65 151.896 296.476C154.123 292.407 157.386 289.039 161.335 286.734C169.691 281.971 179.845 281.971 188.201 286.734C192.147 289.036 195.405 292.405 197.621 296.476C199.894 300.654 201.061 305.371 201.005 310.158C201.062 315.079 199.897 319.934 197.621 324.263C195.434 328.437 192.176 331.915 188.201 334.317C179.882 339.228 169.653 339.228 161.335 334.317ZM164.021 290.952C160.846 292.842 158.237 295.594 156.483 298.907C154.65 302.354 153.712 306.229 153.76 310.158C153.71 314.215 154.646 318.222 156.483 321.814C160.054 328.79 167.091 333.158 174.76 333.158C182.428 333.158 189.465 328.79 193.037 321.814C194.865 318.219 195.796 314.214 195.748 310.158C195.794 306.231 194.86 302.358 193.037 298.907C191.29 295.593 188.687 292.84 185.514 290.952C178.84 287.097 170.695 287.097 164.021 290.952Z" fill="white"/>
<path fill-rule="evenodd" clip-rule="evenodd" d="M218.186 334.278C222.267 336.794 226.939 338.081 231.68 337.996C238.985 338.128 246.025 335.148 251.169 329.746L248.27 326.064C243.856 330.513 237.965 333.02 231.821 333.063C227.974 333.13 224.188 332.05 220.911 329.951C217.778 327.948 215.247 325.071 213.606 321.646C211.907 318.076 211.047 314.138 211.094 310.155C211.038 306.253 211.901 302.397 213.606 298.922C215.249 295.618 217.757 292.867 220.839 290.985C224.104 289 227.829 287.988 231.609 288.057C234.47 288.07 237.308 288.593 239.999 289.604C242.628 290.53 245.065 291.968 247.179 293.84L249.864 290.017C247.488 287.668 244.635 285.906 241.516 284.86C238.278 283.733 234.886 283.161 231.471 283.165C226.85 283.095 222.294 284.314 218.278 286.697C214.425 288.989 211.264 292.357 209.152 296.42C206.956 300.66 205.836 305.414 205.899 310.231C205.836 315.109 206.929 319.928 209.082 324.261C211.164 328.416 214.317 331.885 218.186 334.278Z" fill="white"/>
<path fill-rule="evenodd" clip-rule="evenodd" d="M263.664 311.861H272.356L287.096 338H293L276.544 309.211L291.998 283.162H286.203L272.356 306.925H263.664V283.162H258.593V338H263.664V311.861Z" fill="white"/>
</g>
<defs>
<filter id="filter0_d_1_732" x="26.25" y="10.4535" width="241.5" height="240.85" filterUnits="userSpaceOnUse" color-interpolation-filters="sRGB">
<feFlood flood-opacity="0" result="BackgroundImageFix"/>
<feColorMatrix in="SourceAlpha" type="matrix" values="0 0 0 0 0 0 0 0 0 0 0 0 0 0 0 0 0 0 127 0" result="hardAlpha"/>
<feOffset dy="5.25"/>
<feGaussianBlur stdDeviation="5.25"/>
<feColorMatrix type="matrix" values="0 0 0 0 0 0 0 0 0 0 0 0 0 0 0 0 0 0 0.240942 0"/>
<feBlend mode="normal" in2="BackgroundImageFix" result="effect1_dropShadow_1_732"/>
<feBlend mode="normal" in="SourceGraphic" in2="effect1_dropShadow_1_732" result="shape"/>
</filter>
<filter id="filter1_d_1_732" x="34.125" y="15.6803" width="225.75" height="220.235" filterUnits="userSpaceOnUse" color-interpolation-filters="sRGB">
<feFlood flood-opacity="0" result="BackgroundImageFix"/>
<feColorMatrix in="SourceAlpha" type="matrix" values="0 0 0 0 0 0 0 0 0 0 0 0 0 0 0 0 0 0 127 0" result="hardAlpha"/>
<feOffset dy="2.625"/>
<feGaussianBlur stdDeviation="5.25"/>
<feColorMatrix type="matrix" values="0 0 0 0 1 0 0 0 0 1 0 0 0 0 1 0 0 0 0.529297 0"/>
<feBlend mode="normal" in2="BackgroundImageFix" result="effect1_dropShadow_1_732"/>
<feBlend mode="normal" in="SourceGraphic" in2="effect1_dropShadow_1_732" result="shape"/>
</filter>
<filter id="filter2_i_1_732" x="44.625" y="23.5553" width="204.75" height="199.235" filterUnits="userSpaceOnUse" color-interpolation-filters="sRGB">
<feFlood flood-opacity="0" result="BackgroundImageFix"/>
<feBlend mode="normal" in="SourceGraphic" in2="BackgroundImageFix" result="shape"/>
<feColorMatrix in="SourceAlpha" type="matrix" values="0 0 0 0 0 0 0 0 0 0 0 0 0 0 0 0 0 0 127 0" result="hardAlpha"/>
<feOffset/>
<feGaussianBlur stdDeviation="2.625"/>
<feComposite in2="hardAlpha" operator="arithmetic" k2="-1" k3="1"/>
<feColorMatrix type="matrix" values="0 0 0 0 0.258824 0 0 0 0 0.137255 0 0 0 0 0.431373 0 0 0 0.70355 0"/>
<feBlend mode="normal" in2="shape" result="effect1_innerShadow_1_732"/>
</filter>
<clipPath id="clip0_1_732">
<rect width="252" height="251.257" fill="white" transform="translate(21)"/>
</clipPath>
<clipPath id="clip1_1_732">
<rect width="293" height="54.8378" fill="white" transform="translate(0 283.162)"/>
</clipPath>
</defs>
</svg>
